<?xml version="1.0" standalone="no"?><!DOCTYPE svg PUBLIC "-//W3C//DTD SVG 1.1//EN" "http://www.w3.org/Graphics/SVG/1.1/DTD/svg11.dtd"><svg t="1718806843825" class="icon" viewBox="0 0 1024 1024" version="1.1" xmlns="http://www.w3.org/2000/svg" p-id="8472" xmlns:xlink="http://www.w3.org/1999/xlink" width="200" height="200"><path d="M1022.114487 196.882709c-7.214378-75.401888-84.943485-139.633127-84.943485-139.633127L188.039277 900.633667c116.360939 101.466739 377.474886 170.817858 523.391503 83.779876 165.232533-98.674076 232.721878-288.342407 266.931994-418.89938 36.537335-143.356677 51.198813-293.229566 43.751713-368.631454z" fill="#315433" p-id="8473"></path><path d="M969.752065 114.03372A82.848989 82.848989 0 0 0 907.615323 63.300351a123.342595 123.342595 0 0 0-23.272187-2.327219 160.345374 160.345374 0 0 0-97.510467 35.373725c-49.56976 38.39911-113.335554 72.609226-242.030753 116.360939s-263.673888 111.706501-346.98832 188.737443c-76.79822 71.212895-141.26218 187.341112-114.964607 314.639979a328.37057 328.37057 0 0 0 225.972943 248.546966 369.32962 369.32962 0 0 0 113.800998 17.686862 400.28163 400.28163 0 0 0 255.994066-94.485082c124.273483-102.630348 228.998328-311.847316 269.259212-475.450797 33.046507-133.116914 43.751713-242.263475 21.875857-298.349447z" fill="#87D375" p-id="8474"></path><path d="M926.233074 131.022417a36.770057 36.770057 0 0 0-27.22846-22.108578 77.030942 77.030942 0 0 0-14.661478-1.396331 113.335554 113.335554 0 0 0-69.816564 25.599406c-60.274966 46.544376-134.513245 82.383545-255.994065 122.877152-129.626086 43.286269-255.994066 112.171945-328.836014 179.894011-30.95201 28.624791-129.626086 132.884192-101.001295 271.120988a280.895307 280.895307 0 0 0 194.788212 213.638684 321.388913 321.388913 0 0 0 99.372242 15.359644 351.642757 351.642757 0 0 0 226.903831-83.779876c116.360939-96.579579 215.267737-299.9785 252.968681-450.782278 45.380766-182.919396 31.650175-249.943297 23.50491-270.422822z" fill="#D9F4BA" p-id="8475"></path><path d="M653.948477 491.741328v-5.585325A197.580874 197.580874 0 0 0 279.266253 570.866766a202.00259 202.00259 0 0 0 58.878635 147.778393 239.005369 239.005369 0 0 0 68.187511 11.868815A243.194362 243.194362 0 0 0 653.948477 491.741328z" fill="#8C6850" p-id="8476"></path><path d="M311.149151 587.622741c-7.4471-25.599407 16.290531-100.535851 44.449878-96.579579 10.007041 1.396331-11.17065 23.272188-7.214378 93.088751 0.698166 23.039466-33.744672 16.05781-37.2355 3.490828zM389.809145 442.171568c6.283491 6.748934 3.490828 14.661478-3.258106 21.410413s-15.359644 10.007041-21.875856 3.258106a17.454141 17.454141 0 0 1 0-23.272188 16.988697 16.988697 0 0 1 25.133962-1.396331z" fill="#FFFFFF" p-id="8477"></path><path d="M940.429108 60.042244A46.544376 46.544376 0 0 0 907.615323 42.355382a32.348341 32.348341 0 0 1-11.17065-3.258107 23.272188 23.272188 0 0 1-4.887159-5.119881 51.664257 51.664257 0 0 0-38.166388-21.643134c-33.744672-4.421716-75.169167 12.33426-122.877152 49.802481-59.344079 46.544376-109.379283 63.765795-200.140814 95.183248l-61.438576 21.410413a1056.790047 1056.790047 0 0 0-209.44969 98.674076 612.058539 612.058539 0 0 0-127.764311 104.724845 11.636094 11.636094 0 1 0 17.221419 15.592366 588.553629 588.553629 0 0 1 122.877151-100.535851 1033.285137 1033.285137 0 0 1 204.329809-96.579579l61.205854-21.410413C628.34907 148.011114 682.573268 129.393364 744.710009 80.52177c42.12266-33.977394 78.659995-48.406151 105.655733-45.148045a29.090235 29.090235 0 0 1 23.272187 13.032426 39.329997 39.329997 0 0 0 11.868816 11.17065 53.758754 53.758754 0 0 0 18.850472 5.818047 23.272188 23.272188 0 0 1 17.919585 9.541597c39.097275 47.707985 23.272188 191.530105-13.265147 309.054653a1601.591963 1601.591963 0 0 1-58.18047 149.174724 11.636094 11.636094 0 1 0 21.177691 9.541597A1622.769654 1622.769654 0 0 0 930.887511 390.740033c26.995738-85.874373 62.834907-265.535663 9.541597-330.697789zM89.597923 459.160265a11.636094 11.636094 0 0 0 16.05781-3.72355q8.610709-13.963313 18.385028-26.995738a11.636094 11.636094 0 1 0-18.61775-13.963313q-10.472485 13.963313-19.548638 28.624791a11.636094 11.636094 0 0 0 3.72355 16.05781zM669.308121 808.01036c-89.830645 93.088751-211.544187 131.487861-361.417077 113.568276a282.989803 282.989803 0 0 1-205.493418-144.520286 309.287376 309.287376 0 0 1-21.643134-274.379094 11.636094 11.636094 0 1 0-21.410413-9.076153 332.792285 332.792285 0 0 0 23.272188 295.324063 306.029269 306.029269 0 0 0 222.947559 155.923658 612.058539 612.058539 0 0 0 72.609225 4.421716 410.986836 410.986836 0 0 0 308.356489-124.971649 11.636094 11.636094 0 1 0-16.755976-16.290531zM798.468763 657.439305a11.636094 11.636094 0 0 0-16.05781 3.72355 1026.070759 1026.070759 0 0 1-82.383545 112.870111 11.636094 11.636094 0 1 0 17.919585 14.8942 1047.24845 1047.24845 0 0 0 84.24532-116.360939 11.636094 11.636094 0 0 0-3.72355-15.126922zM837.79876 588.553629a11.636094 11.636094 0 0 0-15.825088 4.887159l-11.868815 21.643135a11.636094 11.636094 0 1 0 20.246803 11.403372l12.101538-22.108578a11.636094 11.636094 0 0 0-4.654438-15.825088z" fill="#604D42" p-id="8478"></path></svg>