<svg width="487" height="866" xmlns="http://www.w3.org/2000/svg" xmlns:xlink="http://www.w3.org/1999/xlink" xml:space="preserve" overflow="hidden"><defs><clipPath id="clip0"><rect x="1976" y="575" width="487" height="866"/></clipPath></defs><g clip-path="url(#clip0)" transform="translate(-1976 -575)"><rect x="1976" y="575" width="487" height="866" fill="#FFFFFF"/><path d="M2118.22 1217C2114.39 1217 2111.47 1218.53 2109.46 1221.6 2107.45 1224.67 2106.45 1229.08 2106.45 1234.83 2106.45 1240.58 2107.27 1244.95 2108.92 1247.95 2110.57 1250.94 2113.07 1252.44 2116.42 1252.44 2117.74 1252.44 2118.83 1252.33 2119.7 1252.1 2120.57 1251.88 2121.42 1251.52 2122.26 1251.03 2123.1 1250.53 2123.95 1249.85 2124.82 1248.98 2125.69 1248.11 2126.33 1247.32 2126.73 1246.6 2127.14 1245.88 2127.44 1245.06 2127.65 1244.13 2127.86 1243.2 2127.97 1242 2127.97 1240.54L2127.97 1230.47C2127.97 1228.14 2127.86 1226.27 2127.65 1224.86 2127.44 1223.45 2127.09 1222.27 2126.6 1221.31 2126.1 1220.35 2125.44 1219.54 2124.6 1218.88 2123.76 1218.22 2122.84 1217.75 2121.84 1217.45 2120.83 1217.15 2119.63 1217 2118.22 1217ZM2133.04 1192.83 2135.69 1192.83 2135.69 1244.85C2135.69 1247.18 2135.74 1248.85 2135.83 1249.86 2135.92 1250.86 2136.11 1251.66 2136.41 1252.26 2136.71 1252.86 2137.18 1253.35 2137.83 1253.72 2138.47 1254.09 2139.6 1254.45 2141.22 1254.78L2141.22 1257.11 2130.62 1257.56 2127.92 1257.56 2128.46 1250.19 2127.79 1250.01C2125.9 1252.02 2124.26 1253.53 2122.87 1254.53 2121.48 1255.53 2119.99 1256.33 2118.42 1256.93 2116.85 1257.53 2115.16 1257.83 2113.37 1257.83 2108.46 1257.83 2104.67 1255.97 2102 1252.24 2099.34 1248.51 2098 1243.13 2098 1236.09 2098 1231.18 2098.87 1227.01 2100.61 1223.58 2102.35 1220.15 2104.69 1217.6 2107.64 1215.92 2110.59 1214.24 2113.91 1213.4 2117.59 1213.4 2119.57 1213.4 2121.36 1213.56 2122.98 1213.87 2124.6 1214.19 2126.26 1214.71 2127.97 1215.42L2127.97 1208.28C2127.97 1205.41 2127.94 1203.4 2127.9 1202.26 2127.85 1201.12 2127.74 1200.16 2127.54 1199.36 2127.35 1198.57 2127.08 1197.95 2126.73 1197.5 2126.39 1197.05 2125.92 1196.69 2125.34 1196.42 2124.76 1196.15 2123.7 1195.88 2122.17 1195.61L2122.17 1193.28Z" fill-rule="evenodd"/><text fill="#000000" fill-opacity="0" font-family="Arial,Arial_MSFontService,sans-serif" font-size="65.002" x="2098" y="1249.71">d</text><path d="M2163.81 1233.45C2166.08 1233.45 2168.01 1233.7 2169.61 1234.21 2171.22 1234.73 2172.52 1235.42 2173.52 1236.29 2174.53 1237.16 2175.25 1238.21 2175.7 1239.43 2176.15 1240.65 2176.37 1241.97 2176.37 1243.39 2176.37 1244.24 2176.31 1245.03 2176.19 1245.76 2176.07 1246.49 2175.86 1247.21 2175.57 1247.92 2175.27 1248.63 2174.89 1249.35 2174.41 1250.07 2173.93 1250.79 2173.33 1251.55 2172.61 1252.36 2172.06 1253.05 2171.35 1253.86 2170.48 1254.78 2169.61 1255.69 2168.66 1256.67 2167.62 1257.72 2166.58 1258.77 2165.5 1259.86 2164.36 1260.99 2163.23 1262.13 2162.13 1263.25 2161.06 1264.36 2159.99 1265.47 2159.01 1266.55 2158.12 1267.6 2157.22 1268.65 2156.49 1269.61 2155.92 1270.48L2168.03 1270.48C2169.05 1270.48 2169.87 1270.44 2170.48 1270.36 2171.09 1270.29 2171.6 1270.12 2172 1269.86 2172.41 1269.6 2172.75 1269.2 2173.03 1268.66 2173.32 1268.13 2173.64 1267.39 2174.01 1266.46L2177.06 1266.46C2176.95 1268 2176.84 1269.56 2176.75 1271.13 2176.65 1272.7 2176.54 1274.26 2176.44 1275.81L2148.73 1275.81 2148.73 1274.11C2149.25 1272.93 2149.86 1271.77 2150.56 1270.63 2151.26 1269.48 2152.04 1268.32 2152.91 1267.14 2153.79 1265.96 2154.78 1264.75 2155.89 1263.49 2157 1262.24 2158.24 1260.94 2159.59 1259.59 2161.64 1257.54 2163.31 1255.78 2164.59 1254.33 2165.88 1252.88 2166.89 1251.59 2167.64 1250.46 2168.38 1249.32 2168.88 1248.28 2169.16 1247.32 2169.43 1246.36 2169.57 1245.33 2169.57 1244.24 2169.57 1243.13 2169.41 1242.1 2169.09 1241.17 2168.78 1240.23 2168.32 1239.43 2167.73 1238.78 2167.14 1238.12 2166.4 1237.61 2165.49 1237.24 2164.59 1236.87 2163.55 1236.68 2162.37 1236.68 2160.34 1236.68 2158.64 1237.24 2157.26 1238.34 2155.89 1239.44 2154.82 1241.04 2154.06 1243.13L2149.77 1243.13 2149.77 1236.75C2152.56 1235.59 2155.13 1234.75 2157.48 1234.23 2159.82 1233.71 2161.93 1233.45 2163.81 1233.45Z" fill-rule="evenodd"/><text fill="#000000" fill-opacity="0" font-family="Arial,Arial_MSFontService,sans-serif" font-size="42.3657" x="2148.73" y="1270.52">2</text><text font-family="Cambria Math,Cambria Math_MSFontService,sans-serif" font-weight="400" font-size="92" transform="matrix(1 0 0 1 2187.04 1257)">=6</text><path d="M2106.5 1318.5 2366.34 1318.5" stroke="#000000" stroke-width="11.4583" stroke-miterlimit="8" fill="none" fill-rule="evenodd"/><path d="M2202.44 1283.06 2133.54 1351.96" stroke="#000000" stroke-width="11.4583" stroke-miterlimit="8" fill="none" fill-rule="evenodd"/><path d="M2118.22 957.154C2114.39 957.154 2111.47 958.689 2109.46 961.759 2107.45 964.828 2106.45 969.238 2106.45 974.988 2106.45 980.738 2107.27 985.111 2108.92 988.105 2110.57 991.1 2113.07 992.598 2116.42 992.598 2117.74 992.598 2118.83 992.485 2119.7 992.261 2120.57 992.036 2121.42 991.677 2122.26 991.182 2123.1 990.688 2123.95 990.007 2124.82 989.139 2125.69 988.27 2126.33 987.476 2126.73 986.758 2127.14 986.039 2127.44 985.215 2127.65 984.287 2127.86 983.359 2127.97 982.161 2127.97 980.693L2127.97 970.631C2127.97 968.295 2127.86 966.423 2127.65 965.016 2127.44 963.608 2127.09 962.425 2126.6 961.467 2126.1 960.508 2125.44 959.7 2124.6 959.041 2123.76 958.382 2122.84 957.903 2121.84 957.603 2120.83 957.304 2119.63 957.154 2118.22 957.154ZM2133.04 932.986 2135.69 932.986 2135.69 985.006C2135.69 987.342 2135.74 989.011 2135.83 990.015 2135.92 991.018 2136.11 991.819 2136.41 992.418 2136.71 993.017 2137.18 993.503 2137.83 993.878 2138.47 994.252 2139.6 994.604 2141.22 994.933L2141.22 997.269 2130.62 997.719 2127.92 997.719 2128.46 990.351 2127.79 990.172C2125.9 992.178 2124.26 993.683 2122.87 994.686 2121.48 995.69 2119.99 996.491 2118.42 997.09 2116.85 997.689 2115.16 997.988 2113.37 997.988 2108.46 997.988 2104.67 996.124 2102 992.395 2099.34 988.667 2098 983.284 2098 976.246 2098 971.335 2098.87 967.164 2100.61 963.735 2102.35 960.306 2104.69 957.753 2107.64 956.076 2110.59 954.399 2113.91 953.56 2117.59 953.56 2119.57 953.56 2121.36 953.718 2122.98 954.032 2124.6 954.347 2126.26 954.863 2127.97 955.582L2127.97 948.439C2127.97 945.564 2127.94 943.558 2127.9 942.42 2127.85 941.282 2127.74 940.316 2127.54 939.522 2127.35 938.729 2127.08 938.107 2126.73 937.658 2126.39 937.209 2125.92 936.849 2125.34 936.58 2124.76 936.31 2123.7 936.041 2122.17 935.771L2122.17 933.435Z" fill-rule="evenodd"/><text fill="#000000" fill-opacity="0" font-family="Arial,Arial_MSFontService,sans-serif" font-size="65.002" x="2098" y="989.863">d</text><path d="M2164.23 973.833 2166.22 973.833C2166.18 975.032 2166.15 976.106 2166.13 977.055 2166.1 978.004 2166.09 978.925 2166.08 979.82 2166.07 980.714 2166.06 981.597 2166.06 982.469L2166.06 1007.33C2166.06 1008.01 2166.08 1008.59 2166.13 1009.08 2166.17 1009.57 2166.24 1009.99 2166.34 1010.33 2166.44 1010.66 2166.57 1010.95 2166.73 1011.19 2166.89 1011.43 2167.09 1011.64 2167.3 1011.81 2167.57 1012.08 2167.91 1012.28 2168.35 1012.42 2168.79 1012.56 2169.34 1012.68 2170.02 1012.78 2170.7 1012.88 2171.51 1012.95 2172.46 1013.01 2173.41 1013.06 2174.54 1013.1 2175.88 1013.12L2175.88 1015.97 2149.93 1015.97 2149.93 1013.12C2151.22 1013.08 2152.31 1013.03 2153.2 1012.98 2154.1 1012.92 2154.86 1012.85 2155.49 1012.75 2156.13 1012.65 2156.63 1012.54 2157.01 1012.42 2157.4 1012.3 2157.73 1012.15 2158.01 1011.98 2158.32 1011.78 2158.58 1011.57 2158.8 1011.34 2159.02 1011.11 2159.19 1010.82 2159.32 1010.47 2159.45 1010.12 2159.56 1009.7 2159.63 1009.2 2159.71 1008.7 2159.75 1008.07 2159.75 1007.33L2159.75 983.876C2159.75 983.026 2159.58 982.426 2159.26 982.077 2158.93 981.728 2158.46 981.553 2157.85 981.553 2157.17 981.553 2156.17 981.902 2154.84 982.6 2153.51 983.298 2151.79 984.334 2149.67 985.708 2149.39 985.207 2149.13 984.705 2148.89 984.203 2148.65 983.702 2148.39 983.189 2148.13 982.666 2150.84 981.183 2153.51 979.705 2156.16 978.233 2158.81 976.761 2161.5 975.294 2164.23 973.833Z" fill-rule="evenodd"/><text fill="#000000" fill-opacity="0" font-family="Arial,Arial_MSFontService,sans-serif" font-size="42.1367" x="2148.13" y="1010.7">1</text><text font-family="Cambria Math,Cambria Math_MSFontService,sans-serif" font-weight="400" font-size="92" transform="matrix(1 0 0 1 2184.91 997)">=3</text><path d="M2106.5 1058.5 2366.34 1058.5" stroke="#000000" stroke-width="11.4583" stroke-miterlimit="8" fill="none" fill-rule="evenodd"/><path d="M2202.44 1023.22 2133.54 1092.12" stroke="#000000" stroke-width="11.4583" stroke-miterlimit="8" fill="none" fill-rule="evenodd"/><path d="M2118.22 697.231C2114.39 697.231 2111.47 698.766 2109.46 701.836 2107.45 704.905 2106.45 709.315 2106.45 715.065 2106.45 720.815 2107.27 725.188 2108.92 728.182 2110.57 731.177 2113.07 732.675 2116.42 732.675 2117.74 732.675 2118.83 732.562 2119.7 732.338 2120.57 732.113 2121.42 731.754 2122.26 731.26 2123.1 730.765 2123.95 730.084 2124.82 729.216 2125.69 728.347 2126.33 727.553 2126.73 726.835 2127.14 726.116 2127.44 725.292 2127.65 724.364 2127.86 723.436 2127.97 722.238 2127.97 720.77L2127.97 710.708C2127.97 708.372 2127.86 706.5 2127.65 705.093 2127.44 703.685 2127.09 702.502 2126.6 701.544 2126.1 700.585 2125.44 699.777 2124.6 699.118 2123.76 698.459 2122.84 697.98 2121.84 697.68 2120.83 697.381 2119.63 697.231 2118.22 697.231ZM2133.04 673.063 2135.69 673.063 2135.69 725.083C2135.69 727.419 2135.74 729.088 2135.83 730.092 2135.92 731.095 2136.11 731.896 2136.41 732.495 2136.71 733.094 2137.18 733.581 2137.83 733.955 2138.47 734.329 2139.6 734.681 2141.22 735.01L2141.22 737.346 2130.62 737.796 2127.92 737.796 2128.46 730.428 2127.79 730.249C2125.9 732.255 2124.26 733.76 2122.87 734.763 2121.48 735.767 2119.99 736.568 2118.42 737.167 2116.85 737.766 2115.16 738.065 2113.37 738.065 2108.46 738.065 2104.67 736.201 2102 732.472 2099.34 728.744 2098 723.361 2098 716.323 2098 711.412 2098.87 707.241 2100.61 703.812 2102.35 700.383 2104.69 697.83 2107.64 696.153 2110.59 694.476 2113.91 693.637 2117.59 693.637 2119.57 693.637 2121.36 693.795 2122.98 694.109 2124.6 694.424 2126.26 694.94 2127.97 695.659L2127.97 688.516C2127.97 685.641 2127.94 683.635 2127.9 682.497 2127.85 681.359 2127.74 680.393 2127.54 679.599 2127.35 678.806 2127.08 678.184 2126.73 677.735 2126.39 677.286 2125.92 676.927 2125.34 676.657 2124.76 676.387 2123.7 676.118 2122.17 675.848L2122.17 673.512Z" fill-rule="evenodd"/><text fill="#000000" fill-opacity="0" font-family="Arial,Arial_MSFontService,sans-serif" font-size="65.002" x="2098" y="729.94">d</text><path d="M2163.68 716.854C2162.15 716.854 2160.87 717.252 2159.85 718.048 2158.82 718.844 2158.01 720.011 2157.41 721.549 2156.81 723.086 2156.39 724.962 2156.14 727.176 2155.89 729.389 2155.76 731.903 2155.76 734.716 2155.76 737.966 2155.92 740.774 2156.23 743.14 2156.55 745.507 2157.04 747.453 2157.71 748.98 2158.37 750.507 2159.21 751.63 2160.21 752.35 2161.21 753.069 2162.41 753.429 2163.81 753.429 2165.12 753.429 2166.26 753.091 2167.24 752.415 2168.22 751.739 2169.04 750.687 2169.68 749.258 2170.32 747.83 2170.81 746.019 2171.14 743.827 2171.46 741.635 2171.63 739.046 2171.63 736.058 2171.63 732.699 2171.45 729.809 2171.09 727.388 2170.73 724.967 2170.22 722.977 2169.57 721.418 2168.91 719.858 2168.09 718.708 2167.1 717.966 2166.1 717.225 2164.96 716.854 2163.68 716.854ZM2163.81 713.681C2166.4 713.681 2168.62 714.166 2170.47 715.136 2172.31 716.107 2173.81 717.492 2174.98 719.291 2176.15 721.091 2177 723.288 2177.55 725.883 2178.09 728.479 2178.37 731.412 2178.37 734.684 2178.37 741.946 2177.08 747.437 2174.51 751.156 2171.93 754.874 2168.2 756.733 2163.32 756.733 2158.48 756.733 2154.88 754.978 2152.52 751.466 2150.17 747.955 2148.99 742.633 2148.99 735.501 2148.99 731.772 2149.35 728.544 2150.08 725.818 2150.81 723.092 2151.84 720.829 2153.16 719.03 2154.48 717.23 2156.04 715.889 2157.85 715.006 2159.66 714.122 2161.65 713.681 2163.81 713.681Z" fill-rule="evenodd"/><text fill="#000000" fill-opacity="0" font-family="Arial,Arial_MSFontService,sans-serif" font-size="43.0527" x="2148.99" y="751.352">0</text><text font-family="Cambria Math,Cambria Math_MSFontService,sans-serif" font-weight="400" font-size="92" transform="matrix(1 0 0 1 2187.04 737)">=</text><text font-family="Cambria Math,Cambria Math_MSFontService,sans-serif" font-weight="400" font-size="92" transform="matrix(1 0 0 1 2255.79 737)">2</text><path d="M2106.5 798.5 2366.34 798.5" stroke="#000000" stroke-width="11.4583" stroke-miterlimit="8" fill="none" fill-rule="evenodd"/><path d="M2202.44 763.378 2133.54 832.278" stroke="#000000" stroke-width="11.4583" stroke-miterlimit="8" fill="none" fill-rule="evenodd"/></g></svg>